:FULLY-SPECIFIED
:FORCE-ALL-JOINTS-BE-3DOF
:DEGREES
442
root 2.27156 15.6325 -9.07673 5.47031 7.47927 -12.0057
lfemur -49.5626 21.2599 -8.94417
ltibia 59.5991 -0 0
lfoot -17.616 1.49826 0.0956857
ltoes 2.07706 -0 0
rfemur -15.0826 -14.1545 14.3245
rtibia 46.5908 -0 0
rfoot -4.8088 -13.8125 0.322602
rtoes -30.6357 0 0
lowerback 4.46599 1.92757 4.71346
upperback 0.863919 2.8039 0.899874
thorax -1.47396 1.38175 -1.88525
lowerneck -6.91311 -0.602411 4.97016
upperneck 1.1083 -1.21944 -0.119022
head 1.52273 -0.573861 -0.912966
lclavicle -3.65861e-14 4.86781e-15 -5.90269e-31
lhumerus -42.6325 -22.5587 99.6386
lradius 52.6403 -0 0
lwrist 7.13666 0 0
lhand -26.6786 -6.52652 0.123334
lfingers 7.12502 -0 0
lthumb -0.109806 23.4313 0.118448
rclavicle -3.65861e-14 4.86781e-15 -5.90269e-31
rhumerus -48.2263 0.709967 -87.2223
rradius 65.438 -0 0
rwrist 10.2625 0 0
rhand -25.7625 -22.1842 0.0775046
rfingers 7.12502 -0 0
rthumb 0.774915 -52.1449 0.0756059
443
root 2.20237 15.6164 -9.01891 5.47181 9.0216 -12.3032
lfemur -50.2961 21.657 -8.97799
ltibia 59.9724 -0 0
lfoot -17.7078 1.11342 0.0888873
ltoes 2.05306 -0 0
rfemur -14.1246 -13.7051 14.0781
rtibia 45.3036 -0 0
rfoot -5.07124 -14.2662 0.299662
rtoes -32.7063 0 0
lowerback 4.40256 1.83913 4.89518
upperback 0.828306 2.69505 1.00749
thorax -1.47634 1.32657 -1.86731
lowerneck -6.93487 -0.724328 4.87596
upperneck 1.02322 -1.37394 -0.0915427
head 1.49277 -0.652846 -0.893112
lclavicle -3.71219e-14 4.46055e-15 -5.48379e-31
lhumerus -42.5491 -22.7308 99.8115
lradius 52.7067 -0 0
lwrist 6.77818 0 0
lhand -26.8586 -6.77972 0.114575
lfingers 7.12502 -0 0
lthumb -0.283611 23.1795 0.110036
rclavicle -3.71219e-14 4.46055e-15 -5.48379e-31
rhumerus -48.3281 0.424667 -87.0989
rradius 65.4262 -0 0
rwrist 10.3356 0 0
rhand -25.9244 -22.3612 0.0720019
rfingers 7.12502 -0 0
rthumb 0.618646 -52.3237 0.0702381
444
root 2.13317 15.6003 -8.96108 5.46518 10.5639 -12.6021
lfemur -51.032 22.0536 -9.01739
ltibia 60.3458 -0 0
lfoot -17.7996 0.72859 0.0814722
ltoes 2.02907 -0 0
rfemur -13.1705 -13.2519 13.8399
rtibia 44.0165 -0 0
rfoot -5.33349 -14.7199 0.274644
rtoes -34.777 0 0
lowerback 4.33886 1.75089 5.07698
upperback 0.792493 2.58626 1.11517
thorax -1.47873 1.27139 -1.84938
lowerneck -6.95643 -0.846281 4.7818
upperneck 0.938052 -1.5284 -0.063832
head 1.4628 -0.731819 -0.873218
lclavicle -3.76576e-14 4.05328e-15 -5.02681e-31
lhumerus -42.4661 -22.9033 99.9844
lradius 52.7731 -0 0
lwrist 6.41969 0 0
lhand -27.0385 -7.0329 0.105021
lfingers 7.12502 -0 0
lthumb -0.457378 22.9277 0.100861
rclavicle -3.76576e-14 4.05328e-15 -5.02681e-31
rhumerus -48.4305 0.139588 -86.9749
rradius 65.4144 -0 0
rwrist 10.4086 0 0
rhand -26.0862 -22.5382 0.0659995
rfingers 7.12502 -0 0
rthumb 0.462394 -52.5025 0.0643828
445
root 2.06398 15.5842 -8.90325 5.45028 12.1062 -12.9027
lfemur -51.7702 22.4498 -9.06241
ltibia 60.7191 -0 0
lfoot -17.8913 0.343773 0.0734408
ltoes 2.00507 -0 0
rfemur -12.2201 -12.7948 13.6099
rtibia 42.7293 -0 0
rfoot -5.59554 -15.1734 0.247551
rtoes -36.8477 0 0
lowerback 4.27488 1.66285 5.25888
upperback 0.756478 2.47753 1.2229
thorax -1.48113 1.2162 -1.83144
lowerneck -6.97779 -0.968268 4.68768
upperneck 0.852808 -1.68282 -0.0358895
head 1.43279 -0.810781 -0.853281
lclavicle -3.81934e-14 3.64601e-15 -4.53174e-31
lhumerus -42.3836 -23.0759 100.157
lradius 52.8396 -0 0
lwrist 6.06121 0 0
lhand -27.2184 -7.28604 0.0946717
lfingers 7.12502 -0 0
lthumb -0.631103 22.676 0.0909217
rclavicle -3.81934e-14 3.64601e-15 -4.53174e-31
rhumerus -48.5335 -0.145269 -86.8504
rradius 65.4026 -0 0
rwrist 10.4817 0 0
rhand -26.2479 -22.7151 0.0594972
rfingers 7.12502 -0 0
rthumb 0.306161 -52.6812 0.0580399
446
root 1.99478 15.5682 -8.84542 5.42697 13.6483 -13.2056
lfemur -52.5109 22.8453 -9.1131
ltibia 61.0925 -0 0
lfoot -17.983 -0.0410313 0.0647935
ltoes 1.98108 -0 0
rfemur -11.2732 -12.3342 13.3882
rtibia 41.4422 -0 0
rfoot -5.85736 -15.6268 0.218384
rtoes -38.9184 0 0
lowerback 4.21062 1.57502 5.44087
upperback 0.720261 2.36888 1.3307
thorax -1.48356 1.16103 -1.8135
lowerneck -6.99895 -1.09029 4.59361
upperneck 0.767481 -1.8372 -0.0077149
head 1.40276 -0.889731 -0.833304
lclavicle -3.87291e-14 3.23874e-15 -3.9986e-31
lhumerus -42.3015 -23.2488 100.33
lradius 52.906 -0 0
lwrist 5.70272 0 0
lhand -27.3983 -7.53914 0.0835281
lfingers 7.12502 -0 0
lthumb -0.804783 22.4243 0.0802197
rclavicle -3.87291e-14 3.23874e-15 -3.9986e-31
rhumerus -48.6371 -0.429901 -86.7255
rradius 65.3908 -0 0
rwrist 10.5547 0 0
rhand -26.4097 -22.8921 0.0524954
rfingers 7.12502 -0 0
rthumb 0.149948 -52.86 0.0512096
447
root 1.92559 15.5521 -8.78759 5.39505 15.1903 -13.5113
lfemur -53.2541 23.2403 -9.16949
ltibia 61.4658 -0 0
lfoot -18.0746 -0.425821 0.0555307
ltoes 1.95708 -0 0
rfemur -10.3299 -11.87 13.1746
rtibia 40.155 -0 0
rfoot -6.11894 -16.0801 0.187147
rtoes -40.989 0 0
lowerback 4.14608 1.48739 5.62294
upperback 0.683842 2.26029 1.43855
thorax -1.486 1.10585 -1.79555
lowerneck -7.01991 -1.21235 4.49957
upperneck 0.68207 -1.99154 0.0206923
head 1.37269 -0.968669 -0.813285
lclavicle -3.92649e-14 2.83148e-15 -3.42737e-31
lhumerus -42.2199 -23.4219 100.503
lradius 52.9724 -0 0
lwrist 5.34424 0 0
lhand -27.5781 -7.79221 0.0715902
lfingers 7.12502 -0 0
lthumb -0.978414 22.1726 0.0687548
rclavicle -3.92649e-14 2.83148e-15 -3.42737e-31
rhumerus -48.7413 -0.714306 -86.6
rradius 65.3791 -0 0
rwrist 10.6278 0 0
rhand -26.5714 -23.069 0.0449941
rfingers 7.12502 -0 0
rthumb -0.00624183 -53.0387 0.043892
448
root 1.85639 15.536 -8.72975 5.35429 16.7322 -13.8202
lfemur -54 23.6345 -9.23165
ltibia 61.8391 -0 0
lfoot -18.1662 -0.810595 0.0456527
ltoes 1.93309 -0 0
rfemur -9.38982 -11.4024 12.9691
rtibia 38.8678 -0 0
rfoot -6.38027 -16.5332 0.153842
rtoes -43.0597 0 0
lowerback 4.08127 1.39997 5.80511
upperback 0.647222 2.15177 1.54647
thorax -1.48846 1.05067 -1.77761
lowerneck -7.04067 -1.33444 4.40558
upperneck 0.596575 -2.14583 0.0493324
head 1.34261 -1.0476 -0.793224
lclavicle -3.98006e-14 2.42421e-15 -2.81806e-31
lhumerus -42.1387 -23.5952 100.676
lradius 53.0388 -0 0
lwrist 4.98575 0 0
lhand -27.7578 -8.04524 0.0588585
lfingers 7.12502 -0 0
lthumb -1.15199 21.921 0.0565275
rclavicle -3.98006e-14 2.42421e-15 -2.81806e-31
rhumerus -48.8462 -0.998481 -86.4739
rradius 65.3673 -0 0
rwrist 10.7009 0 0
rhand -26.7331 -23.2459 0.0369934
rfingers 7.12502 -0 0
rthumb -0.162409 -53.2174 0.0360874
449
root 1.78719 15.52 -8.67192 5.30443 18.2737 -14.1329
lfemur -54.7486 24.0279 -9.2996
ltibia 62.2125 -0 0
lfoot -18.2577 -1.19535 0.0351602
ltoes 1.90909 -0 0
rfemur -8.45302 -10.9316 12.7719
rtibia 37.5807 -0 0
rfoot -6.64133 -16.9862 0.118472
rtoes -45.1304 0 0
lowerback 4.01619 1.31276 5.98738
upperback 0.610399 2.04333 1.65445
thorax -1.49094 0.995494 -1.75966
lowerneck -7.06124 -1.45656 4.31163
upperneck 0.510994 -2.30008 0.0782059
head 1.31249 -1.12651 -0.773122
lclavicle -4.03364e-14 2.01694e-15 -2.17067e-31
lhumerus -42.0581 -23.7688 100.848
lradius 53.1052 -0 0
lwrist 4.62727 0 0
lhand -27.9375 -8.29823 0.0453331
lfingers 7.12502 -0 0
lthumb -1.32552 21.6694 0.0435379
rclavicle -4.03364e-14 2.01694e-15 -2.17067e-31
rhumerus -48.9517 -1.28242 -86.3474
rradius 65.3555 -0 0
rwrist 10.7739 0 0
rhand -26.8948 -23.4228 0.0284935
rfingers 7.12502 -0 0
rthumb -0.31855 -53.3961 0.0277957
450
root 1.71799 15.5039 -8.61408 5.24517 19.8151 -14.45
lfemur -55.5001 24.4205 -9.3734
ltibia 62.5858 -0 0
lfoot -18.3491 -1.58009 0.0240535
ltoes 1.8851 -0 0
rfemur -7.51933 -10.4577 12.5828
rtibia 36.2935 -0 0
rfoot -6.90209 -17.439 0.0810394
rtoes -47.2011 0 0
lowerback 3.95083 1.22575 6.16973
upperback 0.573375 1.93495 1.76249
thorax -1.49343 0.94032 -1.74171
lowerneck -7.0816 -1.57872 4.21771
upperneck 0.425325 -2.45429 0.107313
head 1.28234 -1.20541 -0.752978
lclavicle -4.08721e-14 1.60967e-15 -1.48519e-31
lhumerus -41.9778 -23.9426 101.021
lradius 53.1717 -0 0
lwrist 4.26878 0 0
lhand -28.1171 -8.55118 0.0310147
lfingers 7.12502 -0 0
lthumb -1.49898 21.4178 0.0297865
rclavicle -4.08721e-14 1.60967e-15 -1.48519e-31
rhumerus -49.0579 -1.56613 -86.2202
rradius 65.3437 -0 0
rwrist 10.847 0 0
rhand -27.0565 -23.5997 0.0194945
rfingers 7.12502 -0 0
rthumb -0.474665 -53.5748 0.0190171
